# xmcd
#
# Track frame offsets:
#	150
#	19871
#	45473
#	62343
#	84801
#	104092
#	131606
#	147563
#	165984
#	182183
#
# Disc length: 2665 seconds
#
# Revision: 0
# Processed by: cddbd v1.5.1PL2 Copyright (c) Steve Scherf et al.
# Submitted via: dBpowerAMP V4.0
#
DISCID=7f0a670a
DTITLE=Mike Elrington - Too Good To Be True
DYEAR=2003
DGENRE=Blues
TTITLE0=Too Good To Be True
TTITLE1=Better Days
TTITLE2=Pretentious Ways
TTITLE3=Wipe Your Eyes
TTITLE4=There She Was
TTITLE5=WatchThe Rise
TTITLE6=Destiny
TTITLE7=Find My Lover Someday
TTITLE8=What's A Man Gotta Do
TTITLE9=Stars
EXTD=
EXTT0=
EXTT1=
EXTT2=
EXTT3=
EXTT4=
EXTT5=
EXTT6=
EXTT7=
EXTT8=
EXTT9=
PLAYORDER=
